<svg width="237" height="75" viewBox="0 0 237 75" fill="none" xmlns="http://www.w3.org/2000/svg">
<path d="M85.65 31.05C86.45 29.75 87.6 28.7 89.1 27.9C90.6 27.1 92.3167 26.7 94.25 26.7C96.55 26.7 98.6333 27.2833 100.5 28.45C102.367 29.6167 103.833 31.2833 104.9 33.45C106 35.6167 106.55 38.1333 106.55 41C106.55 43.8667 106 46.4 104.9 48.6C103.833 50.7667 102.367 52.45 100.5 53.65C98.6333 54.8167 96.55 55.4 94.25 55.4C92.2833 55.4 90.5667 55.0167 89.1 54.25C87.6333 53.45 86.4833 52.4 85.65 51.1V55H77.1V18H85.65V31.05ZM97.85 41C97.85 38.8667 97.25 37.2 96.05 36C94.8833 34.7667 93.4333 34.15 91.7 34.15C90 34.15 88.55 34.7667 87.35 36C86.1833 37.2333 85.6 38.9167 85.6 41.05C85.6 43.1833 86.1833 44.8667 87.35 46.1C88.55 47.3333 90 47.95 91.7 47.95C93.4 47.95 94.85 47.3333 96.05 46.1C97.25 44.8333 97.85 43.1333 97.85 41ZM118.836 18V55H110.286V18H118.836ZM136.982 55.4C134.248 55.4 131.782 54.8167 129.582 53.65C127.415 52.4833 125.698 50.8167 124.432 48.65C123.198 46.4833 122.582 43.95 122.582 41.05C122.582 38.1833 123.215 35.6667 124.482 33.5C125.748 31.3 127.482 29.6167 129.682 28.45C131.882 27.2833 134.348 26.7 137.082 26.7C139.815 26.7 142.282 27.2833 144.482 28.45C146.682 29.6167 148.415 31.3 149.682 33.5C150.948 35.6667 151.582 38.1833 151.582 41.05C151.582 43.9167 150.932 46.45 149.632 48.65C148.365 50.8167 146.615 52.4833 144.382 53.65C142.182 54.8167 139.715 55.4 136.982 55.4ZM136.982 48C138.615 48 139.998 47.4 141.132 46.2C142.298 45 142.882 43.2833 142.882 41.05C142.882 38.8167 142.315 37.1 141.182 35.9C140.082 34.7 138.715 34.1 137.082 34.1C135.415 34.1 134.032 34.7 132.932 35.9C131.832 37.0667 131.282 38.7833 131.282 41.05C131.282 43.2833 131.815 45 132.882 46.2C133.982 47.4 135.348 48 136.982 48ZM168.068 55.4C165.334 55.4 162.868 54.8167 160.668 53.65C158.501 52.4833 156.784 50.8167 155.518 48.65C154.284 46.4833 153.668 43.95 153.668 41.05C153.668 38.1833 154.301 35.6667 155.568 33.5C156.834 31.3 158.568 29.6167 160.768 28.45C162.968 27.2833 165.434 26.7 168.168 26.7C170.901 26.7 173.368 27.2833 175.568 28.45C177.768 29.6167 179.501 31.3 180.768 33.5C182.034 35.6667 182.668 38.1833 182.668 41.05C182.668 43.9167 182.018 46.45 180.718 48.65C179.451 50.8167 177.701 52.4833 175.468 53.65C173.268 54.8167 170.801 55.4 168.068 55.4ZM168.068 48C169.701 48 171.084 47.4 172.218 46.2C173.384 45 173.968 43.2833 173.968 41.05C173.968 38.8167 173.401 37.1 172.268 35.9C171.168 34.7 169.801 34.1 168.168 34.1C166.501 34.1 165.118 34.7 164.018 35.9C162.918 37.0667 162.368 38.7833 162.368 41.05C162.368 43.2833 162.901 45 163.968 46.2C165.068 47.4 166.434 48 168.068 48ZM222.054 26.8C225.52 26.8 228.27 27.85 230.304 29.95C232.37 32.05 233.404 34.9667 233.404 38.7V55H224.904V39.85C224.904 38.05 224.42 36.6667 223.454 35.7C222.52 34.7 221.22 34.2 219.554 34.2C217.887 34.2 216.57 34.7 215.604 35.7C214.67 36.6667 214.204 38.05 214.204 39.85V55H205.704V39.85C205.704 38.05 205.22 36.6667 204.254 35.7C203.32 34.7 202.02 34.2 200.354 34.2C198.687 34.2 197.37 34.7 196.404 35.7C195.47 36.6667 195.004 38.05 195.004 39.85V55H186.454V27.1H195.004V30.6C195.87 29.4333 197.004 28.5167 198.404 27.85C199.804 27.15 201.387 26.8 203.154 26.8C205.254 26.8 207.12 27.25 208.754 28.15C210.42 29.05 211.72 30.3333 212.654 32C213.62 30.4667 214.937 29.2167 216.604 28.25C218.27 27.2833 220.087 26.8 222.054 26.8Z" fill="white"/>
<path fill-rule="evenodd" clip-rule="evenodd" d="M31.758 66.3406C32.2252 66.9447 33.1725 67.021 33.7749 66.3128C35.2688 64.5568 36.3945 62.8554 37.22 61.2245C37.7106 60.2553 38.8939 59.8673 39.8631 60.3579C40.8323 60.8485 41.2203 62.0318 40.7297 63.001C39.7507 64.9353 38.4458 66.8932 36.7712 68.8617C34.6581 71.3456 30.7429 71.4582 28.6462 68.7472C25.9905 65.3132 23.6419 60.5315 23.5748 55.0553C23.5068 49.5043 25.7879 43.5141 31.9031 37.7794C32.6954 37.0364 33.9402 37.0763 34.6832 37.8687C35.4263 38.6611 35.3863 39.9058 34.594 40.6489C29.1762 45.7295 27.4555 50.6994 27.5083 55.0071C27.562 59.3894 29.4567 63.3649 31.758 66.3406Z" fill="url(#paint0_radial_21_96)"/>
<path fill-rule="evenodd" clip-rule="evenodd" d="M45.4644 63.4104C46.1654 63.6974 46.9914 63.2956 47.1405 62.3985C47.6062 59.5955 47.7509 56.7751 47.6457 54.8652C47.586 53.7806 48.4168 52.8529 49.5014 52.7931C50.5861 52.7334 51.5138 53.5642 51.5735 54.6489C51.6968 56.8867 51.5269 59.9983 51.0211 63.0432C50.4832 66.2804 47.1514 68.3518 43.974 67.0509C39.963 65.4087 35.5511 62.4511 32.7671 57.7492C29.9455 52.9836 28.9387 46.6643 31.3661 38.6443C31.6807 37.6046 32.7787 37.0169 33.8184 37.3315C34.8581 37.6462 35.4459 38.7442 35.1312 39.7839C32.9791 46.8944 33.965 52.0511 36.1521 55.745C38.3769 59.5025 41.99 61.9879 45.4644 63.4104Z" fill="url(#paint1_radial_21_96)"/>
<path fill-rule="evenodd" clip-rule="evenodd" d="M55.8806 52.9074C56.6229 52.8125 57.1664 52.0444 56.8532 51.1653C56.0794 48.9936 55.1688 47.168 54.1692 45.6376C53.5751 44.7282 53.8308 43.5094 54.7402 42.9153C55.6497 42.3212 56.8685 42.5769 57.4626 43.4864C58.6481 45.3014 59.6913 47.4103 60.5588 49.845C61.6522 52.9136 59.7941 56.373 56.3793 56.8094C52.0436 57.3635 46.6795 56.9323 41.8654 54.1957C36.9884 51.4234 32.8965 46.4083 30.9856 38.2361C30.7383 37.1783 31.3953 36.1203 32.453 35.873C33.5108 35.6257 34.5688 36.2827 34.8161 37.3404C36.5064 44.5694 39.9911 48.6054 43.8094 50.7759C47.6905 52.9821 52.1403 53.3854 55.8806 52.9074Z" fill="url(#paint2_radial_21_96)"/>
<path fill-rule="evenodd" clip-rule="evenodd" d="M60.0272 39.2784C60.6313 38.8112 60.7075 37.8639 59.9994 37.2615C58.2434 35.7676 56.542 34.642 54.9111 33.8164C53.9419 33.3259 53.5539 32.1425 54.0445 31.1733C54.535 30.2041 55.7184 29.8161 56.6876 30.3067C58.6218 31.2857 60.5798 32.5906 62.5483 34.2653C65.0322 36.3783 65.1448 40.2935 62.4338 42.3902C58.9998 45.0459 54.2181 47.3945 48.7418 47.4616C43.1908 47.5296 37.2007 45.2485 31.466 39.1334C30.723 38.341 30.7629 37.0963 31.5553 36.3532C32.3477 35.6101 33.5924 35.6501 34.3355 36.4425C39.4161 41.8602 44.386 43.5809 48.6937 43.5281C53.076 43.4744 57.0515 41.5797 60.0272 39.2784Z" fill="url(#paint3_radial_21_96)"/>
<path fill-rule="evenodd" clip-rule="evenodd" d="M57.097 25.5721C57.3914 24.8531 56.9677 24.0191 56.0929 23.8752C53.9921 23.5298 52.1292 23.481 50.2774 23.583C49.1927 23.6427 48.265 22.8119 48.2053 21.7273C48.1455 20.6426 48.9764 19.7149 50.061 19.6552C52.1458 19.5403 54.3003 19.5939 56.7311 19.9936C59.9916 20.5297 62.031 23.9032 60.7375 27.0626C59.0954 31.0735 56.1378 35.4854 51.4358 38.2694C46.6702 41.0911 40.3509 42.0978 32.331 39.6705C31.2913 39.3558 30.7035 38.2579 31.0182 37.2182C31.3329 36.1785 32.4308 35.5907 33.4705 35.9054C40.5811 38.0575 45.7377 37.0716 49.4316 34.8845C53.1892 32.6597 55.6745 29.0466 57.097 25.5721Z" fill="url(#paint4_radial_21_96)"/>
<path fill-rule="evenodd" clip-rule="evenodd" d="M46.9889 13.9998C46.8941 13.2575 46.1259 12.714 45.2469 13.0272C43.0751 13.801 41.2496 14.7116 39.7192 15.7113C38.8097 16.3053 37.5909 16.0497 36.9968 15.1402C36.4028 14.2307 36.6585 13.0119 37.5679 12.4179C39.3829 11.2323 41.4919 10.1891 43.9265 9.32163C46.9952 8.22822 50.4546 10.0863 50.891 13.5011C51.4451 17.8368 51.0139 23.201 48.2773 28.0151C45.505 32.892 40.4898 36.9839 32.3176 38.8948C31.2599 39.1421 30.2019 38.4851 29.9546 37.4274C29.7072 36.3696 30.3642 35.3117 31.422 35.0643C38.6509 33.374 42.6869 29.8893 44.8574 26.071C47.0637 22.1899 47.4669 17.7401 46.9889 13.9998Z" fill="url(#paint5_radial_21_96)"/>
<path fill-rule="evenodd" clip-rule="evenodd" d="M33.3602 9.85322C32.893 9.24913 31.9458 9.17289 31.3433 9.88106C29.8494 11.6371 28.7238 13.3385 27.8983 14.9694C27.4077 15.9386 26.2243 16.3265 25.2551 15.836C24.2859 15.3454 23.8979 14.162 24.3885 13.1928C25.3675 11.2586 26.6724 9.30068 28.3471 7.33211C30.4602 4.84821 34.3753 4.73563 36.472 7.44666C39.1277 10.8806 41.4763 15.6623 41.5434 21.1386C41.6114 26.6896 39.3303 32.6797 33.2152 38.4144C32.4228 39.1575 31.1781 39.1175 30.435 38.3251C29.6919 37.5328 29.7319 36.288 30.5243 35.545C35.942 30.4643 37.6627 25.4944 37.6099 21.1868C37.5562 16.8044 35.6616 12.8289 33.3602 9.85322Z" fill="url(#paint6_radial_21_96)"/>
<path fill-rule="evenodd" clip-rule="evenodd" d="M19.6539 12.7831C18.9707 12.5034 18.0344 12.8787 17.7834 13.9025C17.1467 16.4996 16.7724 18.7693 16.8678 20.5007C16.9275 21.5853 16.0967 22.513 15.012 22.5727C13.9274 22.6325 12.9997 21.8016 12.9399 20.717C12.8108 18.3727 13.3099 15.6287 13.9628 12.9658C14.7097 9.91926 17.9492 7.83444 21.1444 9.1426C25.1553 10.7847 29.5672 13.7424 32.3512 18.4443C35.1729 23.2099 36.1796 29.5292 33.7523 37.5492C33.4376 38.5889 32.3396 39.1766 31.2999 38.8619C30.2602 38.5473 29.6725 37.4493 29.9871 36.4096C32.1392 29.2991 31.1534 24.1424 28.9662 20.4485C26.7414 16.691 23.1283 14.2056 19.6539 12.7831Z" fill="url(#paint7_radial_21_96)"/>
<path fill-rule="evenodd" clip-rule="evenodd" d="M9.11266 23.0167C8.3704 23.1116 7.82684 23.8797 8.14006 24.7588C8.91388 26.9305 9.82449 28.7561 10.8241 30.2864C11.4182 31.1959 11.1625 32.4147 10.2531 33.0088C9.3436 33.6028 8.12476 33.3471 7.5307 32.4377C6.34515 30.6227 5.30197 28.5137 4.43449 26.0791C3.34108 23.0104 5.19918 19.5511 8.61398 19.1146C12.9497 18.5605 18.3138 18.9918 23.1279 21.7283C28.0049 24.5006 32.0967 29.5158 34.0076 37.688C34.255 38.7457 33.598 39.8037 32.5402 40.0511C31.4825 40.2984 30.4245 39.6414 30.1772 38.5837C28.4868 31.3547 25.0022 27.3187 21.1839 25.1482C17.3028 22.942 12.853 22.5387 9.11266 23.0167Z" fill="url(#paint8_radial_21_96)"/>
<path fill-rule="evenodd" clip-rule="evenodd" d="M4.96605 36.6457C4.36195 37.1129 4.28572 38.0601 4.99388 38.6626C6.7499 40.1564 8.45128 41.2821 10.0822 42.1076C11.0514 42.5982 11.4394 43.7816 10.9488 44.7508C10.4582 45.72 9.27483 46.108 8.30563 45.6174C6.37141 44.6384 4.41351 43.3335 2.44493 41.6588C-0.0389649 39.5457 -0.151551 35.6306 2.55948 33.5339C5.99345 30.8781 10.7751 28.5296 16.2514 28.4625C21.8024 28.3945 27.7925 30.6755 33.5272 36.7907C34.2703 37.5831 34.2303 38.8278 33.438 39.5709C32.6456 40.314 31.4009 40.274 30.6578 39.4816C25.5771 34.0639 20.6072 32.3432 16.2996 32.396C11.9173 32.4497 7.94173 34.3443 4.96605 36.6457Z" fill="url(#paint9_radial_21_96)"/>
<path fill-rule="evenodd" clip-rule="evenodd" d="M7.89625 50.3515C7.60925 51.0525 8.01108 51.8786 8.90809 52.0276C11.7112 52.4933 14.5316 52.638 16.4414 52.5328C17.526 52.4731 18.4538 53.3039 18.5135 54.3886C18.5732 55.4732 17.7424 56.4009 16.6578 56.4606C14.42 56.5839 11.3083 56.414 8.26339 55.9082C5.0262 55.3704 2.95489 52.0385 4.25576 48.8611C5.8979 44.8501 8.85552 40.4382 13.5575 37.6542C18.3231 34.8326 24.6424 33.8258 32.6623 36.2532C33.702 36.5679 34.2898 37.6658 33.9751 38.7055C33.6604 39.7452 32.5625 40.333 31.5228 40.0183C24.4122 37.8662 19.2555 38.8521 15.5617 41.0392C11.8041 43.264 9.31873 46.8771 7.89625 50.3515Z" fill="url(#paint10_radial_21_96)"/>
<path fill-rule="evenodd" clip-rule="evenodd" d="M18.1297 62.194C18.2245 62.9363 18.9927 63.4799 19.8717 63.1666C22.0435 62.3928 23.869 61.4822 25.3994 60.4826C26.3089 59.8885 27.5277 60.1442 28.1217 61.0536C28.7158 61.9631 28.4601 63.1819 27.5507 63.776C25.7357 64.9616 23.6267 66.0047 21.1921 66.8722C18.1234 67.9656 14.664 66.1075 14.2276 62.6927C13.6735 58.3571 14.1047 52.9929 16.8413 48.1788C19.6136 43.3018 24.6288 39.21 32.801 37.2991C33.8587 37.0517 34.9167 37.7087 35.164 38.7665C35.4114 39.8242 34.7544 40.8822 33.6966 41.1295C26.4677 42.8199 22.4317 46.3045 20.2612 50.1228C18.0549 54.0039 17.6517 58.4537 18.1297 62.194Z" fill="url(#paint11_radial_21_96)"/>
<defs>
<radialGradient id="paint0_radial_21_96" cx="0" cy="0" r="1" gradientUnits="userSpaceOnUse" gradientTransform="translate(32.2665 73.2177) rotate(-90) scale(44.6381 23.14)">
<stop stop-color="#1BC2E6"/>
<stop offset="1" stop-color="#E71B40"/>
</radialGradient>
<radialGradient id="paint1_radial_21_96" cx="0" cy="0" r="1" gradientUnits="userSpaceOnUse" gradientTransform="translate(49.6471 68.9196) rotate(-120) scale(44.5407 24.0482)">
<stop stop-color="#1BC2E6"/>
<stop offset="1" stop-color="#E71B40"/>
</radialGradient>
<radialGradient id="paint2_radial_21_96" cx="0" cy="0" r="1" gradientUnits="userSpaceOnUse" gradientTransform="translate(62.119 55.8995) rotate(-150) scale(45.0796 23.0297)">
<stop stop-color="#1BC2E6"/>
<stop offset="1" stop-color="#E71B40"/>
</radialGradient>
<radialGradient id="paint3_radial_21_96" cx="0" cy="0" r="1" gradientUnits="userSpaceOnUse" gradientTransform="translate(66.9042 38.7699) rotate(-180) scale(44.6381 23.14)">
<stop stop-color="#1BC2E6"/>
<stop offset="1" stop-color="#E71B40"/>
</radialGradient>
<radialGradient id="paint4_radial_21_96" cx="0" cy="0" r="1" gradientUnits="userSpaceOnUse" gradientTransform="translate(62.8713 21.8313) rotate(150) scale(44.5514 22.6771)">
<stop stop-color="#1BC2E6"/>
<stop offset="1" stop-color="#E71B40"/>
</radialGradient>
<radialGradient id="paint5_radial_21_96" cx="0" cy="0" r="1" gradientUnits="userSpaceOnUse" gradientTransform="translate(49.981 7.76142) rotate(120) scale(45.0796 23.0297)">
<stop stop-color="#1BC2E6"/>
<stop offset="1" stop-color="#E71B40"/>
</radialGradient>
<radialGradient id="paint6_radial_21_96" cx="0" cy="0" r="1" gradientUnits="userSpaceOnUse" gradientTransform="translate(32.8517 2.97619) rotate(90) scale(44.6381 23.14)">
<stop stop-color="#1BC2E6"/>
<stop offset="1" stop-color="#E71B40"/>
</radialGradient>
<radialGradient id="paint7_radial_21_96" cx="0" cy="0" r="1" gradientUnits="userSpaceOnUse" gradientTransform="translate(15.4138 7.28453) rotate(60) scale(44.5648 24.1948)">
<stop stop-color="#1BC2E6"/>
<stop offset="1" stop-color="#E71B40"/>
</radialGradient>
<radialGradient id="paint8_radial_21_96" cx="0" cy="0" r="1" gradientUnits="userSpaceOnUse" gradientTransform="translate(2.87427 20.0246) rotate(30) scale(45.0796 23.0297)">
<stop stop-color="#1BC2E6"/>
<stop offset="1" stop-color="#E71B40"/>
</radialGradient>
<radialGradient id="paint9_radial_21_96" cx="0" cy="0" r="1" gradientUnits="userSpaceOnUse" gradientTransform="translate(-1.91098 37.1542) scale(44.6381 23.14)">
<stop stop-color="#1BC2E6"/>
<stop offset="1" stop-color="#E71B40"/>
</radialGradient>
<radialGradient id="paint10_radial_21_96" cx="0" cy="0" r="1" gradientUnits="userSpaceOnUse" gradientTransform="translate(2.38702 54.5342) rotate(-30) scale(44.5407 24.0482)">
<stop stop-color="#1BC2E6"/>
<stop offset="1" stop-color="#E71B40"/>
</radialGradient>
<radialGradient id="paint11_radial_21_96" cx="0" cy="0" r="1" gradientUnits="userSpaceOnUse" gradientTransform="translate(15.1375 68.4324) rotate(-60) scale(45.0796 23.0297)">
<stop stop-color="#1BC2E6"/>
<stop offset="1" stop-color="#E71B40"/>
</radialGradient>
</defs>
</svg>
