<svg width="28" height="27" viewBox="0 0 28 27" fill="none" xmlns="http://www.w3.org/2000/svg">
<path fill-rule="evenodd" clip-rule="evenodd" d="M14.0331 24.9494C14.2207 25.2009 14.6011 25.2326 14.843 24.9378C15.4429 24.2067 15.895 23.4983 16.2265 22.8193C16.4235 22.4158 16.8987 22.2543 17.2879 22.4585C17.6771 22.6628 17.8329 23.1555 17.6359 23.559C17.2427 24.3643 16.7187 25.1794 16.0462 25.999C15.1977 27.0332 13.6255 27.08 12.7835 25.9513C11.717 24.5216 10.7739 22.5308 10.747 20.2508C10.7197 17.9397 11.6357 15.4458 14.0913 13.0582C14.4095 12.7488 14.9094 12.7655 15.2078 13.0954C15.5062 13.4253 15.4901 13.9435 15.1719 14.2529C12.9963 16.3681 12.3054 18.4373 12.3265 20.2308C12.3481 22.0553 13.1089 23.7105 14.0331 24.9494Z" fill="url(#paint0_radial_35_629)"/>
<path fill-rule="evenodd" clip-rule="evenodd" d="M19.4591 23.791C19.744 23.9076 20.0797 23.7443 20.1403 23.3798C20.3296 22.2406 20.3884 21.0943 20.3456 20.3182C20.3214 19.8774 20.659 19.5003 21.0998 19.476C21.5406 19.4518 21.9177 19.7894 21.9419 20.2302C21.992 21.1397 21.923 22.4043 21.7174 23.6418C21.4988 24.9574 20.1447 25.7992 18.8534 25.2705C17.2233 24.6031 15.4303 23.4011 14.2988 21.4902C13.1521 19.5534 12.7429 16.9852 13.7294 13.7258C13.8573 13.3033 14.3035 13.0644 14.7261 13.1923C15.1486 13.3202 15.3875 13.7664 15.2596 14.189C14.385 17.0788 14.7857 19.1745 15.6745 20.6757C16.5787 22.2028 18.0471 23.2129 19.4591 23.791Z" fill="url(#paint1_radial_35_629)"/>
<path fill-rule="evenodd" clip-rule="evenodd" d="M23.6918 19.5224C23.9935 19.4838 24.2144 19.1717 24.0871 18.8144C23.7726 17.9318 23.4025 17.1899 22.9962 16.5679C22.7548 16.1983 22.8587 15.7029 23.2283 15.4615C23.5979 15.2201 24.0933 15.324 24.3347 15.6936C24.8165 16.4312 25.2405 17.2883 25.5931 18.2778C26.0374 19.5249 25.2823 20.9309 23.8945 21.1082C22.1324 21.3334 19.9524 21.1582 17.9959 20.046C16.0138 18.9193 14.3509 16.8811 13.5742 13.5598C13.4737 13.13 13.7407 12.7 14.1706 12.5995C14.6005 12.4989 15.0305 12.7659 15.131 13.1958C15.818 16.1337 17.2341 17.774 18.7859 18.6561C20.3633 19.5528 22.1717 19.7167 23.6918 19.5224Z" fill="url(#paint2_radial_35_629)"/>
<path fill-rule="evenodd" clip-rule="evenodd" d="M25.649 13.7347C25.9005 13.5471 25.9322 13.1667 25.6374 12.9248C24.9063 12.3249 24.1979 11.8729 23.5189 11.5414C23.1154 11.3444 22.9539 10.8691 23.1581 10.4799C23.3624 10.0907 23.855 9.93493 24.2586 10.1319C25.0639 10.5251 25.879 11.0491 26.6986 11.7216C27.7328 12.5701 27.7796 14.1424 26.6509 14.9843C25.2212 16.0508 23.2304 16.9939 20.9504 17.0208C18.6393 17.0482 16.1454 16.1321 13.7578 13.6765C13.4484 13.3583 13.4651 12.8584 13.795 12.56C14.1249 12.2616 14.6431 12.2777 14.9525 12.5959C17.0677 14.7715 19.1369 15.4625 20.9304 15.4413C22.7549 15.4197 24.4101 14.6589 25.649 13.7347Z" fill="url(#paint3_radial_35_629)"/>
<path fill-rule="evenodd" clip-rule="evenodd" d="M24.1863 8.41306C24.306 8.12083 24.1338 7.78189 23.7783 7.72343C22.9245 7.58304 22.1674 7.5632 21.4148 7.60466C20.974 7.62893 20.5969 7.29127 20.5726 6.85046C20.5484 6.40966 20.886 6.03263 21.3268 6.00835C22.1741 5.96168 23.0497 5.98345 24.0376 6.14588C25.3627 6.36377 26.1916 7.73481 25.6659 9.0188C24.9985 10.6489 23.7965 12.4419 21.8856 13.5734C19.9488 14.7201 17.3806 15.1293 14.1212 14.1428C13.6986 14.0149 13.4598 13.5687 13.5877 13.1461C13.7155 12.7236 14.1618 12.4847 14.5843 12.6126C17.4741 13.4872 19.5698 13.0866 21.0711 12.1977C22.5982 11.2935 23.6082 9.8251 24.1863 8.41306Z" fill="url(#paint4_radial_35_629)"/>
<path fill-rule="evenodd" clip-rule="evenodd" d="M20.0783 3.71006C20.0397 3.40839 19.7276 3.18749 19.3703 3.31479C18.4877 3.62927 17.7458 3.99935 17.1238 4.40561C16.7542 4.64704 16.2588 4.54313 16.0174 4.17352C15.776 3.80391 15.8799 3.30857 16.2495 3.06714C16.9871 2.58531 17.8442 2.16136 18.8337 1.8088C20.0808 1.36443 21.4868 2.11958 21.6641 3.50739C21.8893 5.26945 21.7141 7.44949 20.6019 9.40599C19.4752 11.388 17.437 13.051 14.1157 13.8276C13.6859 13.9281 13.2559 13.6611 13.1554 13.2312C13.0548 12.8014 13.3219 12.3714 13.7517 12.2709C16.6897 11.5839 18.3299 10.1677 19.212 8.61592C20.1087 7.03859 20.2726 5.23017 20.0783 3.71006Z" fill="url(#paint5_radial_35_629)"/>
<path fill-rule="evenodd" clip-rule="evenodd" d="M14.4347 2.02689C14.2471 1.78795 13.8667 1.7578 13.6247 2.0379C13.0249 2.73244 12.5728 3.40538 12.2413 4.05044C12.0443 4.43378 11.5691 4.58724 11.1799 4.3932C10.7907 4.19917 10.6349 3.73111 10.8319 3.34777C11.225 2.58274 11.749 1.80834 12.4215 1.02973C13.2701 0.0472861 14.8423 0.00275561 15.6843 1.07503C16.7507 2.43325 17.6939 4.32452 17.7208 6.49052C17.7481 8.68607 16.8321 11.0553 14.3764 13.3235C14.0582 13.6174 13.5584 13.6016 13.26 13.2882C12.9616 12.9748 12.9776 12.4825 13.2958 12.1886C15.4714 10.1791 16.1624 8.21335 16.1412 6.50957C16.1197 4.77626 15.3588 3.20384 14.4347 2.02689Z" fill="url(#paint6_radial_35_629)"/>
<path fill-rule="evenodd" clip-rule="evenodd" d="M8.96949 3.21549C8.69182 3.1018 8.31132 3.25434 8.20932 3.67042C7.95055 4.72589 7.79843 5.64836 7.83719 6.35198C7.86147 6.79279 7.5238 7.16982 7.083 7.1941C6.64219 7.21838 6.26516 6.88071 6.24088 6.43991C6.1884 5.48717 6.39125 4.37198 6.65657 3.28975C6.96012 2.0516 8.27668 1.20431 9.57523 1.73596C11.2053 2.40334 12.9983 3.60534 14.1298 5.51626C15.2765 7.45304 15.6857 10.0213 14.6992 13.2806C14.5713 13.7032 14.1251 13.9421 13.7025 13.8142C13.28 13.6863 13.0411 13.2401 13.169 12.8175C14.0436 9.92773 13.643 7.83201 12.7541 6.33078C11.8499 4.80368 10.3815 3.7936 8.96949 3.21549Z" fill="url(#paint7_radial_35_629)"/>
<path fill-rule="evenodd" clip-rule="evenodd" d="M4.68467 7.37459C4.383 7.41314 4.1621 7.72531 4.28939 8.08258C4.60388 8.96519 4.97396 9.70712 5.38022 10.3291C5.62165 10.6987 5.51774 11.194 5.14813 11.4355C4.77852 11.6769 4.28318 11.573 4.04174 11.2034C3.55992 10.4657 3.13597 9.60863 2.78341 8.61918C2.33904 7.37204 3.09419 5.96612 4.482 5.78876C6.24406 5.56357 8.4241 5.73882 10.3806 6.85099C12.3626 7.97768 14.0256 10.0159 14.8022 13.3371C14.9027 13.767 14.6357 14.197 14.2059 14.2975C13.776 14.398 13.346 14.131 13.2455 13.7012C12.5585 10.7632 11.1423 9.12297 9.59053 8.24085C8.0132 7.34422 6.20478 7.18032 4.68467 7.37459Z" fill="url(#paint8_radial_35_629)"/>
<path fill-rule="evenodd" clip-rule="evenodd" d="M2.81832 12.6359C2.5668 12.8235 2.53507 13.2039 2.8299 13.4458C3.561 14.0457 4.26936 14.4977 4.94837 14.8292C5.35189 15.0263 5.51342 15.5015 5.30917 15.8907C5.10493 16.2799 4.61224 16.4357 4.20872 16.2387C3.40342 15.8455 2.58827 15.3215 1.76867 14.649C0.734525 13.8005 0.687651 12.2282 1.81636 11.3863C3.24607 10.3198 5.23687 9.37669 7.51687 9.34976C9.82798 9.32245 12.3219 10.2385 14.7095 12.6941C15.0189 13.0123 15.0022 13.5122 14.6723 13.8106C14.3424 14.109 13.8242 14.0929 13.5148 13.7747C11.3996 11.5991 9.33038 10.9081 7.53693 10.9293C5.71239 10.9509 4.05721 11.7117 2.81832 12.6359Z" fill="url(#paint9_radial_35_629)"/>
<path fill-rule="evenodd" clip-rule="evenodd" d="M4.19057 18.4837C4.07393 18.7686 4.23724 19.1043 4.60179 19.1648C5.74099 19.3541 6.88723 19.4129 7.6634 19.3702C8.10421 19.3459 8.48124 19.6836 8.50552 20.1244C8.5298 20.5652 8.19214 20.9422 7.75133 20.9665C6.84187 21.0166 5.57727 20.9475 4.33978 20.7419C3.02415 20.5234 2.18235 19.1693 2.71104 17.8779C3.37842 16.2479 4.58043 14.4548 6.49134 13.3234C8.42813 12.1766 10.9963 11.7675 14.2557 12.754C14.6783 12.8819 14.9171 13.3281 14.7893 13.7506C14.6614 14.1732 14.2152 14.412 13.7926 14.2841C10.9028 13.4095 8.80709 13.8102 7.30587 14.6991C5.77877 15.6032 4.76868 17.0716 4.19057 18.4837Z" fill="url(#paint10_radial_35_629)"/>
<path fill-rule="evenodd" clip-rule="evenodd" d="M8.34944 23.2965C8.38799 23.5982 8.70017 23.8191 9.05744 23.6918C9.94005 23.3773 10.682 23.0072 11.3039 22.601C11.6735 22.3595 12.1689 22.4635 12.4103 22.8331C12.6517 23.2027 12.5478 23.698 12.1782 23.9395C11.4406 24.4213 10.5835 24.8452 9.59404 25.1978C8.3469 25.6422 6.94098 24.887 6.76361 23.4992C6.53842 21.7371 6.71367 19.5571 7.82585 17.6006C8.95254 15.6186 10.9907 13.9556 14.312 13.179C14.7419 13.0785 15.1718 13.3455 15.2724 13.7753C15.3729 14.2052 15.1059 14.6352 14.676 14.7357C11.7381 15.4227 10.0978 16.8389 9.21571 18.3907C8.31907 19.968 8.15517 21.7764 8.34944 23.2965Z" fill="url(#paint11_radial_35_629)"/>
<defs>
<radialGradient id="paint0_radial_35_629" cx="0" cy="0" r="1" gradientUnits="userSpaceOnUse" gradientTransform="translate(14.2373 27.8126) rotate(-90) scale(18.5847 9.29233)">
<stop stop-color="#1BC2E6"/>
<stop offset="1" stop-color="#E71B40"/>
</radialGradient>
<radialGradient id="paint1_radial_35_629" cx="0" cy="0" r="1" gradientUnits="userSpaceOnUse" gradientTransform="translate(21.159 26.03) rotate(-120) scale(18.1017 9.77343)">
<stop stop-color="#1BC2E6"/>
<stop offset="1" stop-color="#E71B40"/>
</radialGradient>
<radialGradient id="paint2_radial_35_629" cx="0" cy="0" r="1" gradientUnits="userSpaceOnUse" gradientTransform="translate(26.2271 20.7384) rotate(-150) scale(18.3208 9.35949)">
<stop stop-color="#1BC2E6"/>
<stop offset="1" stop-color="#E71B40"/>
</radialGradient>
<radialGradient id="paint3_radial_35_629" cx="0" cy="0" r="1" gradientUnits="userSpaceOnUse" gradientTransform="translate(28.5122 13.5305) rotate(-180) scale(18.5847 9.29233)">
<stop stop-color="#1BC2E6"/>
<stop offset="1" stop-color="#E71B40"/>
</radialGradient>
<radialGradient id="paint4_radial_35_629" cx="0" cy="0" r="1" gradientUnits="userSpaceOnUse" gradientTransform="translate(26.5331 6.89273) rotate(150) scale(18.1061 9.2162)">
<stop stop-color="#1BC2E6"/>
<stop offset="1" stop-color="#E71B40"/>
</radialGradient>
<radialGradient id="paint5_radial_35_629" cx="0" cy="0" r="1" gradientUnits="userSpaceOnUse" gradientTransform="translate(21.2943 1.17472) rotate(120) scale(18.3208 9.35949)">
<stop stop-color="#1BC2E6"/>
<stop offset="1" stop-color="#E71B40"/>
</radialGradient>
<radialGradient id="paint6_radial_35_629" cx="0" cy="0" r="1" gradientUnits="userSpaceOnUse" gradientTransform="translate(14.2305 -0.693142) rotate(90) scale(17.6554 9.29233)">
<stop stop-color="#1BC2E6"/>
<stop offset="1" stop-color="#E71B40"/>
</radialGradient>
<radialGradient id="paint7_radial_35_629" cx="0" cy="0" r="1" gradientUnits="userSpaceOnUse" gradientTransform="translate(7.24629 0.980824) rotate(60) scale(18.1116 9.83299)">
<stop stop-color="#1BC2E6"/>
<stop offset="1" stop-color="#E71B40"/>
</radialGradient>
<radialGradient id="paint8_radial_35_629" cx="0" cy="0" r="1" gradientUnits="userSpaceOnUse" gradientTransform="translate(2.14933 6.15856) rotate(30) scale(18.3208 9.35949)">
<stop stop-color="#1BC2E6"/>
<stop offset="1" stop-color="#E71B40"/>
</radialGradient>
<radialGradient id="paint9_radial_35_629" cx="0" cy="0" r="1" gradientUnits="userSpaceOnUse" gradientTransform="translate(-0.0448728 12.8401) scale(18.5847 9.29233)">
<stop stop-color="#1BC2E6"/>
<stop offset="1" stop-color="#E71B40"/>
</radialGradient>
<radialGradient id="paint10_radial_35_629" cx="0" cy="0" r="1" gradientUnits="userSpaceOnUse" gradientTransform="translate(1.95157 20.1835) rotate(-30) scale(18.1017 9.77343)">
<stop stop-color="#1BC2E6"/>
<stop offset="1" stop-color="#E71B40"/>
</radialGradient>
<radialGradient id="paint11_radial_35_629" cx="0" cy="0" r="1" gradientUnits="userSpaceOnUse" gradientTransform="translate(7.13342 25.8319) rotate(-60) scale(18.3208 9.35949)">
<stop stop-color="#1BC2E6"/>
<stop offset="1" stop-color="#E71B40"/>
</radialGradient>
</defs>
</svg>
